<?xml version="1.0" standalone="no"?>
<!DOCTYPE svg PUBLIC "-//W3C//DTD SVG 20010904//EN"
 "http://www.w3.org/TR/2001/REC-SVG-20010904/DTD/svg10.dtd">
<svg version="1.0" xmlns="http://www.w3.org/2000/svg"
 width="1024.000000pt" height="812.000000pt" viewBox="0 0 1024.000000 812.000000"
 preserveAspectRatio="xMidYMid meet">

<g transform="translate(0.000000,812.000000) scale(0.100000,-0.100000)"
fill="#000000" stroke="none">
<path d="M4710 7648 c0 -7 42 -60 93 -118 51 -58 128 -152 172 -210 43 -58 82
-107 86 -110 13 -9 139 -251 139 -267 0 -8 -37 23 -82 69 -46 45 -111 105
-146 132 -82 63 -141 126 -142 151 -1 84 -155 174 -277 162 -30 -3 -57 -8 -60
-11 -21 -21 62 -139 133 -189 28 -19 62 -31 120 -40 95 -15 137 -38 249 -133
44 -38 86 -73 93 -79 47 -37 177 -214 201 -273 45 -108 79 -221 95 -312 37
-211 37 -209 68 -216 16 -3 31 -4 33 -2 11 10 -36 233 -75 365 -25 81 -118
300 -187 437 -101 202 -233 381 -458 622 -6 6 -20 16 -33 23 -17 9 -22 9 -22
-1z"/>
<path d="M4090 6984 c0 -3 36 -51 80 -107 44 -56 89 -114 100 -129 21 -28 120
-213 120 -225 0 -6 -113 101 -196 186 -19 19 -34 42 -34 51 0 46 -85 102 -157
104 -54 1 -61 -8 -38 -50 27 -50 78 -92 122 -99 21 -4 52 -12 68 -18 45 -16
158 -121 219 -201 78 -103 115 -235 131 -461 l6 -90 -40 -41 c-38 -40 -42 -42
-99 -40 -33 0 -58 4 -55 9 2 4 -26 7 -62 7 -46 0 -64 -3 -59 -11 4 -8 1 -8
-12 -1 -14 7 -51 3 -129 -13 -116 -24 -215 -61 -304 -114 -30 -18 -57 -29 -61
-24 -13 14 -20 72 -10 78 5 3 18 34 29 68 37 119 64 166 106 190 22 13 46 35
53 49 17 36 33 171 22 182 -13 13 -135 -82 -156 -121 -15 -27 -16 -37 -5 -73
12 -40 10 -47 -20 -122 -38 -91 -42 -88 -59 44 -19 151 -21 162 -31 147 -16
-24 0 -342 21 -414 13 -46 15 -66 7 -74 -17 -17 -31 -13 -46 12 -43 70 -169
226 -256 316 -146 152 -386 328 -576 422 -185 92 -488 194 -511 171 -7 -7 32
-24 129 -55 167 -54 349 -131 426 -181 32 -20 60 -36 63 -36 10 0 65 -42 61
-46 -2 -3 -38 4 -78 16 -41 11 -117 26 -169 35 -112 17 -182 37 -188 54 -5 16
-57 41 -94 46 -71 9 -218 -51 -218 -89 0 -23 102 -67 167 -73 48 -4 69 -1 120
21 75 31 106 32 255 6 169 -29 292 -77 386 -149 112 -86 263 -250 352 -381 24
-36 57 -82 74 -103 l30 -37 -82 -76 c-105 -98 -171 -180 -228 -288 -45 -85
-94 -221 -94 -263 0 -13 -4 -23 -9 -23 -30 0 -277 107 -355 153 -100 60 -163
130 -239 264 -62 108 -78 158 -71 213 8 57 -16 116 -69 173 -41 44 -54 46 -67
11 -29 -75 5 -206 58 -226 28 -11 72 -69 112 -148 12 -25 40 -71 62 -103 22
-33 38 -61 35 -63 -6 -6 -135 100 -170 139 -16 18 -46 51 -68 74 -21 23 -62
72 -90 110 -88 116 -109 138 -109 114 0 -24 143 -208 242 -312 157 -165 410
-332 628 -415 l85 -32 3 -49 3 -49 -116 -38 c-64 -22 -118 -43 -121 -48 -7
-11 -1 -10 65 6 31 8 79 17 106 21 l50 6 -55 -50 c-40 -37 -63 -50 -86 -51
-16 0 -38 -6 -47 -13 -20 -14 -70 -144 -62 -158 15 -23 41 -2 120 95 47 59
126 136 139 136 5 0 31 16 58 36 28 19 58 37 67 39 27 5 82 41 74 48 -3 4 7 7
23 7 33 0 114 34 114 48 0 6 -7 13 -16 16 -14 5 -15 4 -4 -9 10 -12 9 -15 -6
-15 -38 0 -64 13 -64 31 0 10 5 21 10 24 8 5 8 11 0 20 -7 8 -9 32 -5 62 l6
48 -64 50 c-36 27 -63 53 -60 57 8 13 17 9 63 -32 25 -22 50 -38 55 -37 6 2
11 19 13 38 4 38 19 60 30 44 17 -24 113 -96 123 -93 7 2 -20 31 -60 63 l-71
60 5 43 c3 24 7 48 11 53 3 5 45 -26 92 -69 48 -43 100 -90 116 -103 15 -13
58 -52 95 -86 36 -34 71 -63 76 -63 6 0 -30 39 -80 85 -49 47 -93 85 -97 85
-4 0 -8 5 -8 11 0 7 -41 51 -91 98 l-92 87 21 47 21 47 106 -108 c59 -59 105
-102 104 -95 -2 6 -50 59 -105 116 -101 104 -102 105 -88 133 25 49 51 77 66
71 26 -9 167 -274 184 -343 l7 -29 -20 24 c-12 15 -25 21 -32 16 -9 -5 2 -22
38 -59 32 -33 59 -73 75 -111 21 -52 28 -60 53 -63 15 -1 35 2 43 7 12 9 12
12 -2 28 -9 10 -31 54 -49 98 -17 44 -51 122 -75 174 -24 52 -44 98 -44 102 0
11 31 -24 174 -194 78 -93 107 -134 103 -148 -3 -10 -2 -19 1 -19 11 0 171
133 247 204 38 36 71 66 72 66 2 0 3 -8 3 -19 0 -43 73 -235 108 -284 59 -82
183 -199 251 -237 34 -19 70 -42 79 -50 10 -9 36 -28 59 -43 23 -15 67 -60 97
-99 53 -71 112 -175 104 -184 -2 -2 -20 1 -39 7 -20 6 -130 9 -269 7 -251 -3
-302 3 -390 47 -128 65 -153 81 -175 109 -45 61 -58 157 -27 216 10 19 26 70
37 112 15 63 16 80 5 93 -20 24 -30 18 -30 -21 0 -21 -10 -53 -22 -73 -22 -35
-34 -62 -65 -149 -21 -58 -35 -44 -72 76 -17 53 -37 106 -45 117 -15 20 -15
20 -43 -8 -26 -26 -26 -29 -10 -38 9 -6 17 -19 17 -29 0 -17 -7 -20 -51 -20
-50 0 -109 -28 -109 -51 0 -5 39 -9 88 -9 l88 0 28 -67 c15 -38 33 -79 39 -93
23 -48 159 -174 220 -203 32 -15 64 -27 71 -27 8 0 16 -4 18 -8 5 -13 78 -52
98 -52 51 0 17 -25 -122 -93 -84 -41 -180 -85 -213 -97 -33 -13 -114 -46 -180
-73 -131 -54 -417 -147 -452 -147 -4 0 -7 93 -5 207 3 174 -9 408 -21 420 -7
6 -99 -50 -104 -63 -3 -8 -13 -14 -23 -14 -9 0 -38 -16 -63 -35 l-46 -35 14
-41 c8 -23 15 -50 15 -60 0 -16 -3 -17 -25 -7 -14 6 -28 8 -33 4 -9 -10 27
-36 50 -36 21 0 34 -22 43 -73 6 -33 11 -38 49 -47 60 -16 96 -31 96 -41 0 -9
-30 -5 -82 11 -36 11 -39 5 -22 -42 8 -23 12 -43 9 -46 -3 -3 -39 2 -80 11
-85 19 -115 21 -115 8 0 -5 21 -12 48 -15 26 -4 73 -12 104 -18 54 -11 58 -14
72 -53 9 -22 16 -46 16 -53 0 -13 11 -16 45 -12 20 2 20 1 1 -17 -13 -13 -20
-15 -23 -5 -3 6 -9 10 -14 6 -5 -3 -9 -2 -9 3 0 14 -101 4 -275 -27 -128 -23
-186 -29 -236 -25 -73 6 -67 10 -94 -70 -5 -16 -8 -17 -15 -5 -6 8 -10 24 -10
35 0 19 -7 20 -193 21 -301 1 -370 16 -612 140 -89 45 -279 180 -357 254 -60
57 -73 75 -97 142 -16 42 -38 90 -50 107 -43 60 -199 147 -277 153 l-39 3 1
-62 c1 -48 8 -76 32 -125 63 -127 151 -198 244 -198 56 0 143 -46 276 -147 51
-38 143 -99 205 -134 100 -57 109 -64 82 -67 -16 -2 -54 3 -85 12 -30 9 -95
25 -144 36 -49 11 -168 54 -265 94 -168 71 -210 90 -420 199 -98 50 -121 56
-121 32 0 -20 47 -48 242 -148 365 -188 574 -256 973 -322 263 -43 369 -55
503 -55 90 0 102 -2 102 -17 1 -118 28 -297 69 -448 12 -43 70 -177 85 -195
27 -32 56 -102 56 -135 0 -69 35 -110 58 -68 9 14 21 7 85 -53 76 -69 76 -69
78 -124 1 -30 2 -62 1 -70 -1 -8 5 -54 13 -101 44 -256 159 -445 400 -656 90
-79 226 -164 318 -199 40 -15 77 -32 82 -37 6 -6 -64 -7 -185 -3 -290 11 -549
-15 -771 -74 l-39 -11 37 -54 c20 -30 39 -55 43 -55 4 0 10 -10 14 -23 3 -12
23 -42 44 -66 l38 -44 48 22 c65 28 69 27 61 -15 -5 -27 -3 -35 7 -32 7 3 16
24 21 47 8 38 13 44 62 66 l54 25 12 75 c14 91 35 116 25 31 -3 -32 -11 -67
-16 -77 -10 -17 -8 -18 15 -9 14 5 39 17 55 25 17 9 30 12 30 8 0 -5 -7 -48
-15 -98 -17 -103 -18 -125 -7 -125 4 0 14 44 21 97 19 148 19 146 60 165 21
10 43 18 50 18 7 0 11 6 8 13 -3 8 -1 20 4 28 7 11 9 11 9 -3 0 -22 10 -23 36
-3 10 8 26 15 34 15 18 0 17 -69 -6 -576 -5 -112 -3 -132 10 -137 21 -8 24 27
31 402 4 243 8 327 18 333 43 28 127 5 127 -35 0 -12 7 -173 15 -357 8 -184
12 -337 7 -341 -4 -4 -25 -13 -47 -20 -39 -14 -38 -14 70 -17 105 -3 285 20
285 37 0 4 -24 30 -53 59 -41 41 -55 50 -65 40 -16 -16 -30 -1 -34 36 -2 16
-8 31 -14 33 -7 2 -8 -13 -4 -47 l7 -51 -50 -25 c-27 -14 -51 -24 -53 -21 -5
4 -21 273 -30 510 l-7 179 42 -21 c22 -12 41 -28 41 -36 0 -17 16 -20 25 -5 4
6 29 -5 61 -25 30 -19 55 -34 57 -32 1 1 22 -7 45 -17 45 -20 45 -20 62 -118
11 -62 21 -80 33 -60 3 4 1 33 -4 66 -6 32 -8 60 -6 62 9 9 95 -37 102 -53 3
-10 8 -36 11 -57 2 -21 6 -46 9 -56 3 -10 -10 -31 -36 -58 -41 -41 -42 -42
-30 -84 18 -67 19 -143 2 -143 -11 0 -18 21 -27 70 -6 39 -9 73 -7 78 11 18
-25 4 -56 -23 -18 -17 -38 -30 -44 -30 -5 0 -4 -7 3 -15 7 -9 10 -18 7 -21 -3
-3 0 -26 8 -50 7 -25 9 -41 3 -38 -6 4 -2 -5 7 -20 10 -14 18 -26 20 -26 15 0
128 47 195 80 110 55 189 112 278 200 l72 71 50 -7 c34 -4 55 -3 65 6 13 11
14 10 9 -4 -5 -14 2 -16 56 -16 104 0 254 21 267 37 9 12 21 12 72 3 45 -8 66
-8 82 1 15 8 19 8 15 0 -5 -8 16 -11 69 -11 65 0 76 2 71 15 -5 13 -3 13 17 1
16 -11 34 -12 64 -7 41 8 42 7 100 -51 111 -113 255 -201 419 -257 115 -39
194 -51 324 -50 l105 1 -39 16 -39 16 7 220 c9 302 17 460 25 467 3 4 21 11
39 17 27 9 40 9 62 -3 l27 -14 3 -168 c1 -92 3 -190 4 -218 1 -27 3 -107 4
-177 2 -111 4 -128 18 -128 15 0 16 15 10 148 -12 283 -18 532 -12 532 4 0 22
-6 41 -14 30 -13 34 -13 39 2 3 9 4 -3 2 -28 -2 -25 -2 -37 1 -28 2 10 11 18
18 18 24 0 85 -41 86 -58 0 -10 2 -26 3 -37 2 -11 6 -53 10 -93 5 -39 13 -75
19 -79 7 -4 8 7 4 33 -4 21 -10 72 -14 112 l-6 74 41 -21 c23 -12 43 -21 45
-21 3 0 -1 29 -8 65 -9 51 -9 65 0 65 7 0 15 -22 19 -52 12 -89 14 -93 65
-115 44 -18 49 -24 60 -66 14 -56 35 -65 25 -10 -8 40 -5 41 68 9 l37 -16 41
51 c23 29 39 58 36 66 -3 7 0 13 7 13 11 0 77 82 77 95 0 7 -99 33 -215 55
-84 17 -167 23 -354 28 l-244 7 84 34 c149 60 269 144 422 291 136 130 227
280 278 459 20 69 46 307 35 318 -3 4 -33 -12 -66 -35 -32 -23 -65 -42 -72
-42 -17 0 -58 -28 -58 -40 0 -5 7 -7 15 -4 11 5 13 2 9 -10 -8 -20 -20 -21
-27 -2 -3 8 -14 13 -24 12 -14 -2 -18 -13 -19 -46 -1 -24 -6 -46 -13 -48 -9
-3 -9 -7 0 -18 7 -9 10 -34 7 -64 -4 -41 -2 -52 16 -67 17 -15 89 -70 105 -79
1 -2 0 -7 -4 -13 -4 -7 -27 5 -61 30 -31 22 -58 39 -61 36 -2 -3 -7 -24 -10
-46 -3 -23 -8 -41 -10 -41 -3 0 -35 25 -71 55 -37 31 -69 50 -71 44 -2 -6 5
-17 15 -24 11 -7 30 -23 44 -35 14 -12 37 -33 53 -46 26 -22 27 -25 16 -69 -6
-25 -14 -45 -18 -45 -4 0 -44 34 -89 75 -78 71 -102 86 -102 66 0 -5 41 -47
92 -94 l92 -85 -12 -41 c-15 -48 -25 -56 -45 -37 -8 8 -17 13 -19 11 -3 -3
-11 6 -18 20 -7 14 -20 25 -27 25 -8 0 -12 4 -9 9 3 5 -1 14 -9 21 -8 7 -15 9
-15 4 0 -5 -8 5 -19 21 -23 37 -69 80 -77 73 -7 -8 28 -48 37 -42 4 2 10 -4
13 -14 4 -11 40 -52 81 -91 l75 -73 -15 -34 c-18 -43 -58 -84 -83 -84 -12 0
-51 38 -102 98 -46 53 -96 111 -111 127 -16 17 -54 62 -86 100 -31 39 -77 92
-101 119 -28 32 -42 56 -39 68 4 14 2 16 -13 8 -10 -5 -25 -16 -32 -22 -7 -7
-34 -29 -58 -48 -85 -65 -209 -185 -277 -267 -32 -38 -41 -43 -124 -62 -113
-26 -132 -26 -205 0 -32 11 -74 26 -93 32 -50 17 -121 118 -201 282 -103 210
-134 320 -152 525 -27 327 75 1010 178 1186 14 24 29 44 33 44 4 0 20 13 37
29 81 79 226 115 393 100 109 -10 136 -24 225 -115 37 -37 62 -73 76 -110 11
-30 20 -58 20 -63 0 -14 123 -133 148 -142 36 -14 71 -11 87 9 22 25 15 36
-20 33 -56 -4 -155 108 -155 177 0 25 3 26 50 11 19 -5 88 -14 153 -19 133
-10 125 -6 376 -162 162 -101 161 -101 150 -278 -16 -236 -3 -597 21 -623 9
-11 89 29 96 47 3 8 17 16 32 19 15 3 46 23 70 45 23 21 42 37 42 35 0 -3 18
10 40 27 47 37 49 46 15 54 -14 4 -23 11 -20 16 4 6 17 7 31 4 22 -6 24 -3 25
32 1 22 1 43 0 47 -1 4 21 5 49 1 42 -6 50 -4 50 10 0 9 -6 16 -12 16 -44 0
-88 23 -107 56 -15 24 -38 43 -77 61 -30 14 -53 27 -51 29 2 2 28 0 57 -6 64
-12 70 -12 70 -2 0 11 -89 31 -122 28 -22 -3 -27 2 -32 28 -10 52 -42 96 -71
96 -16 0 -24 4 -20 10 4 6 15 8 26 5 18 -6 18 -5 -2 29 -11 20 -19 36 -16 36
3 0 33 -16 66 -35 37 -22 58 -40 55 -49 -3 -7 2 -13 10 -13 8 0 13 5 9 10 -6
10 50 4 82 -9 18 -8 18 -9 -6 -14 -25 -5 -20 -10 62 -67 140 -98 112 -54 -66
102 -37 33 -76 66 -87 73 -10 7 -18 16 -18 20 0 4 102 -2 227 -14 215 -19 253
-18 253 7 0 11 -50 16 -275 29 -104 7 -204 13 -220 14 -17 2 -52 19 -77 38
-26 20 -53 38 -60 41 -40 14 29 28 217 42 116 9 253 20 305 24 52 5 98 7 102
4 4 -2 13 -22 20 -44 11 -39 12 -40 20 -18 5 13 8 44 6 69 l-2 44 134 27 c184
37 300 63 395 89 44 12 94 25 110 30 106 29 325 122 465 197 123 66 345 200
380 229 28 24 40 54 23 54 -8 0 -122 -65 -245 -139 -113 -69 -416 -217 -483
-236 -33 -9 -89 -28 -125 -41 -36 -13 -85 -26 -110 -30 l-45 -6 48 33 c178
123 227 160 286 215 36 33 82 69 101 79 19 10 47 27 62 38 15 11 34 17 43 13
30 -11 96 17 146 62 70 63 120 170 122 260 l2 67 -35 -3 c-77 -6 -225 -100
-267 -170 -13 -20 -30 -62 -39 -92 -32 -110 -69 -154 -243 -294 -125 -100
-168 -128 -305 -201 -71 -38 -112 -52 -209 -71 -67 -14 -144 -26 -171 -27
l-50 -2 -16 80 c-17 85 -26 114 -70 235 -15 41 -35 100 -45 130 -27 82 -43
110 -73 122 -29 13 -123 94 -116 101 3 2 43 -4 90 -13 120 -25 90 -2 -51 39
-60 18 -115 37 -122 43 -7 6 -13 30 -13 55 0 43 1 45 48 64 259 108 544 313
717 516 101 118 217 289 213 315 -2 18 -12 7 -52 -53 -82 -123 -223 -293 -302
-363 -41 -36 -79 -66 -84 -66 -6 0 5 24 24 53 18 28 54 93 79 142 40 82 60
108 133 175 24 23 44 82 44 133 0 37 -27 117 -39 117 -14 0 -80 -76 -100 -115
-17 -33 -20 -56 -18 -125 2 -85 2 -85 -54 -200 -75 -154 -152 -250 -255 -318
-77 -50 -341 -178 -350 -169 -3 2 -9 33 -15 68 -41 262 -176 473 -445 695 -39
33 -72 63 -73 67 -4 14 139 166 229 245 167 146 277 190 481 194 111 2 117 1
165 -27 57 -34 125 -38 188 -11 l39 16 -24 26 c-55 60 -154 81 -202 44 -27
-21 -49 -24 -247 -34 l-95 -5 65 30 c91 42 196 74 330 99 135 26 177 44 80 35
-182 -17 -380 -81 -570 -183 -155 -82 -267 -168 -392 -300 -48 -51 -89 -92
-93 -92 -11 0 -4 27 24 100 16 41 34 113 40 161 17 135 12 153 -15 49 -14 -52
-29 -99 -33 -103 -13 -13 -31 104 -25 159 6 50 5 53 -36 98 -62 67 -73 63 -68
-29 3 -69 6 -77 35 -102 56 -50 85 -186 59 -277 l-16 -55 -33 19 c-56 33 -189
77 -282 94 -88 15 -311 16 -335 1 -6 -4 -2 -18 12 -37 49 -65 74 -104 81 -120
10 -28 27 -21 43 17 8 19 16 35 18 35 6 0 -10 -53 -23 -78 -16 -31 -15 -32 40
-32 l51 0 -21 -36 c-12 -20 -20 -39 -17 -41 2 -3 16 16 31 41 28 47 36 51 105
47 21 -2 32 9 64 63 21 37 42 69 48 72 23 14 17 -8 -17 -61 -20 -31 -35 -58
-33 -60 2 -2 21 -5 42 -7 20 -1 40 -6 42 -10 3 -4 -13 -35 -36 -68 -22 -33
-43 -68 -47 -77 -6 -16 -5 -16 10 -4 9 7 17 20 17 27 0 8 4 14 9 14 5 0 26 25
47 56 38 56 39 56 82 51 24 -2 45 -7 48 -10 3 -3 -19 -39 -50 -80 -31 -40 -56
-79 -56 -85 0 -5 -4 -12 -9 -14 -8 -3 -29 -32 -132 -176 -17 -24 -29 -45 -27
-48 2 -2 28 29 57 69 28 39 59 81 67 92 13 19 14 18 5 -7 -6 -15 -21 -49 -36
-77 -14 -28 -25 -57 -25 -65 0 -8 -13 -19 -30 -25 -33 -11 -35 -15 -19 -60 13
-38 19 -38 50 -5 13 15 39 33 57 40 25 11 32 20 32 41 0 17 15 45 41 75 22 27
39 56 37 65 -2 13 -16 2 -48 -39 -79 -102 -64 -62 52 134 93 158 97 162 136
153 18 -3 32 -10 32 -15 0 -8 -98 -137 -137 -180 -13 -14 -23 -29 -23 -33 0
-5 13 6 30 24 16 19 38 43 48 54 10 11 40 45 66 76 l47 57 49 -16 c37 -12 53
-23 66 -48 10 -18 23 -30 28 -27 6 3 2 -3 -9 -14 -11 -11 -108 -111 -215 -223
-107 -112 -203 -211 -214 -219 -10 -9 -24 -22 -32 -29 -11 -11 -19 -9 -44 10
-20 14 -45 23 -71 23 -44 0 -43 -1 -27 24 9 15 8 22 -5 35 -22 22 -32 20 -60
-13 -37 -44 -150 -263 -191 -371 -45 -116 -92 -197 -126 -215 -14 -8 -46 -34
-72 -59 -27 -24 -67 -51 -90 -59 -24 -8 -81 -26 -127 -41 -116 -37 -223 -90
-266 -130 -19 -19 -37 -31 -40 -27 -11 18 21 93 62 147 77 101 108 156 151
264 59 151 64 181 71 425 6 205 8 223 30 269 13 26 39 63 58 82 32 32 38 34
102 34 59 0 70 3 91 25 l23 25 -66 0 c-36 0 -68 4 -72 9 -6 11 49 55 82 65
l23 7 -27 42 c-14 23 -30 43 -34 45 -5 2 -16 18 -24 35 -8 18 -26 45 -39 61
l-23 30 -53 -22 -52 -22 4 30 c6 41 -14 33 -26 -9 -7 -25 -20 -38 -52 -54 -40
-19 -43 -23 -54 -84 -14 -73 -36 -101 -25 -32 3 24 9 52 11 62 6 18 -20 25
-31 7 -13 -21 -25 -9 -25 26 0 19 -4 33 -8 30 -17 -10 7 90 42 179 41 102 42
108 21 125 -21 18 -24 12 -36 -61 -15 -100 -20 -119 -31 -119 -5 0 -7 12 -3
30 8 37 0 39 -19 3 -13 -26 -14 -23 -20 62 -11 142 -15 163 -37 170 -10 4 -19
11 -19 16 0 5 -7 9 -15 9 -19 0 -19 -44 0 -200 7 -63 11 -135 9 -160 -3 -25
-5 -67 -4 -93 1 -32 -3 -47 -9 -42 -7 3 -11 -3 -11 -15 0 -13 4 -19 12 -14 7
5 8 3 2 -7 -5 -8 -7 -23 -6 -34 2 -14 0 -16 -6 -7 -7 10 -16 9 -47 -3 l-38
-16 6 68 c4 37 9 163 13 278 3 116 7 220 9 233 4 26 -3 52 -15 52 -10 0 -29
-390 -30 -598 0 -37 -3 -44 -27 -53 -21 -8 -35 -7 -59 4 l-31 15 -7 134 c-4
73 -9 215 -13 314 l-6 182 39 12 c37 13 38 13 14 22 -58 23 -347 -26 -442 -73
-64 -32 -72 -34 -65 -16 3 6 12 29 21 50 23 54 13 46 -30 -23 -26 -42 -57 -74
-100 -105 -34 -25 -64 -45 -67 -45 -2 0 -7 34 -11 76 -12 149 -77 362 -164
540 -66 134 -292 427 -292 378z m884 -860 c21 -19 36 -38 32 -41 -6 -6 -72 46
-80 65 -10 21 8 13 48 -24z m190 -76 c13 -221 25 -492 22 -495 -8 -9 -76 32
-76 45 0 12 -2 12 -17 1 -13 -11 -17 -11 -20 -1 -3 6 -10 12 -17 12 -7 0 -21
8 -32 18 -10 9 -39 24 -64 33 -44 16 -44 16 -59 85 -16 78 -16 78 -29 70 -6
-3 -6 -25 0 -57 5 -28 7 -53 5 -56 -10 -9 -84 36 -94 59 -9 18 -12 19 -12 6
-1 -22 0 -22 -45 -3 l-36 15 22 30 c25 34 48 39 48 11 0 -11 4 -23 10 -26 6
-4 8 10 4 37 -6 41 -4 46 29 75 l35 31 -18 75 c-9 42 -15 79 -12 82 18 18 31
-2 43 -64 l12 -69 42 31 c24 18 39 34 34 35 -5 2 -9 24 -9 49 0 38 2 44 14 33
8 -6 16 -25 18 -42 l3 -30 38 26 c46 32 47 32 47 2 0 -14 5 -28 10 -31 6 -4
10 9 10 32 0 31 5 41 28 55 55 33 60 27 66 -74z m307 -71 c-8 -8 -11 -7 -11 4
0 9 3 19 7 23 4 4 9 2 11 -4 3 -7 -1 -17 -7 -23z m856 -164 c-4 -3 -2 -12 5
-20 17 -21 1 -28 -18 -8 -15 14 -15 18 -3 26 17 10 25 12 16 2z m88 -104 c11
-17 -1 -21 -15 -4 -8 9 -8 15 -2 15 6 0 14 -5 17 -11z m-2370 -104 c22 -36 43
-65 47 -65 15 0 8 30 -12 50 -11 11 -20 26 -20 34 0 8 -4 18 -10 21 -22 14 -8
25 32 25 25 0 49 -7 61 -17 15 -13 21 -15 24 -5 9 24 21 11 18 -20 -1 -18 6
-51 17 -72 19 -37 19 -41 4 -73 -20 -42 -20 -67 -1 -83 8 -7 15 -19 15 -26 0
-8 3 -14 8 -14 13 0 33 -53 23 -63 -9 -9 -49 45 -64 86 -9 25 -23 14 -37 -28
-10 -30 -8 -38 16 -75 22 -33 25 -43 14 -53 -7 -7 -10 -7 -7 -1 3 6 -3 17 -14
24 -10 8 -19 26 -20 40 0 21 -4 17 -24 -23 l-23 -48 -48 63 c-27 35 -52 68
-56 73 -5 6 -41 53 -80 105 -40 52 -76 97 -80 98 -4 2 -8 8 -8 14 0 5 -12 24
-26 43 l-25 34 43 5 c62 8 107 13 153 14 39 2 41 0 80 -63z m225 23 c0 -13 -4
-29 -9 -36 -9 -16 -24 -1 -35 36 -6 19 -4 22 18 22 20 0 26 -5 26 -22z m-476
-45 c26 -32 55 -67 64 -78 9 -11 64 -84 123 -161 l107 -142 -17 -38 -17 -37
-114 138 c-63 76 -138 165 -166 199 -49 59 -83 143 -69 167 14 22 46 5 89 -48z
m710 -20 c9 -20 3 -16 -39 29 l-40 42 37 -30 c20 -16 39 -35 42 -41z m182 -22
c83 -17 270 -42 293 -39 20 2 41 -3 41 -11 0 -6 -54 -40 -120 -77 -131 -74
-155 -94 -242 -202 -40 -51 -60 -85 -64 -113 -4 -22 -10 -42 -14 -44 -15 -9
-93 109 -112 168 -22 71 -22 81 -4 74 9 -4 16 3 20 16 6 21 56 256 56 263 0 2
10 0 23 -5 13 -5 68 -18 123 -30z m854 7 c0 -6 -7 -5 -15 2 -8 7 -15 17 -15
22 0 6 7 5 15 -2 8 -7 15 -17 15 -22z m275 -56 c-41 -40 -95 -120 -95 -142 0
-26 -24 -2 -35 36 -6 21 -19 54 -29 72 -10 19 -15 36 -13 39 3 3 41 9 83 14
43 6 80 12 83 15 2 2 14 4 25 4 18 0 15 -6 -19 -38z m-389 -4 c11 -12 -19
-163 -38 -190 -25 -36 -40 -126 -35 -210 4 -63 8 -73 39 -106 78 -82 157 -222
158 -278 0 -36 -19 -96 -33 -106 -6 -3 -12 -14 -13 -24 -2 -9 -28 -42 -58 -73
-31 -31 -56 -61 -56 -67 0 -6 -8 -22 -18 -35 -10 -13 -27 -52 -38 -86 -10 -35
-22 -63 -26 -63 -4 0 -42 69 -84 153 -43 83 -91 179 -108 212 -49 98 -40 236
18 284 9 8 16 20 16 27 0 27 -32 13 -79 -34 -37 -37 -50 -59 -56 -90 -4 -23
-10 -44 -15 -47 -4 -3 -28 12 -53 33 -26 20 -90 64 -143 97 -53 33 -104 71
-113 84 -21 33 -18 115 7 171 31 69 153 180 280 255 44 26 68 47 80 72 l17 35
172 -4 c95 -2 175 -7 179 -10z m143 -17 c9 -14 23 -46 30 -71 7 -25 20 -65 28
-90 18 -54 29 -340 16 -445 l-8 -69 -85 108 c-116 147 -113 140 -94 228 8 40
24 135 34 211 11 76 22 142 24 146 10 16 38 7 55 -18z m1509 -14 c7 -18 12
-40 12 -49 0 -8 -41 -56 -92 -107 -113 -112 -104 -121 11 -11 46 44 87 80 92
80 9 0 29 -64 29 -93 0 -10 4 -26 9 -35 4 -9 11 -35 14 -57 6 -39 5 -41 -53
-85 -62 -46 -68 -54 -48 -66 7 -5 9 -2 5 9 -4 11 -2 14 8 10 9 -3 31 9 51 26
19 17 39 29 45 26 12 -8 12 -81 -1 -105 -7 -13 -6 -19 5 -24 8 -3 15 -14 15
-24 0 -10 6 -24 13 -31 10 -10 9 -11 -5 -6 -14 6 -18 2 -18 -19 0 -17 -5 -26
-15 -26 -22 0 -85 27 -85 37 0 4 14 17 30 28 29 19 39 35 22 35 -5 0 -26 -13
-47 -29 -37 -28 -40 -28 -78 -15 -55 19 -57 19 -107 -26 -46 -41 -70 -50 -70
-27 0 7 20 26 45 41 50 32 50 42 1 52 -39 7 -79 -3 -71 -17 4 -5 -1 -9 -9 -9
-9 0 -16 -4 -16 -9 0 -10 -30 -24 -37 -17 -3 2 9 18 26 34 17 16 31 32 31 35
0 3 -13 8 -30 12 -16 4 -32 10 -35 14 -2 5 39 50 93 101 123 118 106 114 -23
-5 -96 -88 -111 -95 -153 -80 -8 3 -12 11 -10 19 3 15 416 446 427 446 4 0 12
-15 19 -33z m-2621 -42 l-12 -50 -3 38 c-2 21 2 45 9 53 18 22 19 14 6 -41z
m-309 -190 c-3 -3 -9 2 -12 12 -6 14 -5 15 5 6 7 -7 10 -15 7 -18z m2455 -234
c18 -11 44 -32 57 -47 14 -14 70 -63 124 -108 l100 -81 -95 -12 c-143 -17
-159 -17 -159 7 0 25 -1 25 -42 1 -18 -11 -52 -24 -75 -30 -43 -12 -244 -33
-250 -27 -7 6 49 171 77 226 27 54 51 82 80 94 30 12 150 -3 183 -23z m-3330
-76 c8 -8 18 -11 22 -7 5 4 5 1 1 -6 -7 -12 -17 -9 -56 18 -13 8 -13 10 2 10
9 0 23 -7 31 -15z m67 -40 c-7 -8 -17 -15 -22 -15 -6 0 -5 7 2 15 7 8 17 15
22 15 6 0 5 -7 -2 -15z m3810 -155 c0 -5 -4 -10 -10 -10 -5 0 -10 5 -10 10 0
6 5 10 10 10 6 0 10 -4 10 -10z m264 -16 c5 -14 4 -15 -9 -4 -17 14 -19 20 -6
20 5 0 12 -7 15 -16z m-369 -59 c87 -56 105 -64 105 -43 0 6 3 9 6 6 3 -4 -1
-17 -9 -30 -20 -31 -42 -331 -33 -465 l6 -103 -25 0 c-66 0 -402 63 -465 87
-8 3 -24 8 -35 10 -50 9 -291 97 -301 109 -6 8 -16 14 -22 14 -6 0 -23 11 -39
24 -28 24 -45 31 -156 71 l-49 17 40 42 c21 22 60 68 86 101 64 81 120 122
181 134 135 26 184 33 235 34 30 1 57 4 60 8 3 4 64 12 135 19 72 7 132 14
134 16 17 16 71 -3 146 -51z m535 -109 c62 -65 70 -77 31 -43 -29 26 -83 80
-120 120 -88 96 -18 36 89 -77z m-170 -131 c26 -28 27 -26 -18 -49 -43 -22
-52 -14 -40 34 12 46 25 50 58 15z m98 -96 c22 -24 39 -36 46 -30 10 7 123 41
139 41 4 0 7 -9 7 -20 0 -19 -9 -23 -102 -46 -16 -3 -28 -9 -28 -13 0 -3 16
-24 34 -46 28 -32 37 -38 47 -27 15 14 33 16 24 2 -3 -6 1 -7 9 -4 9 3 16 9
16 13 0 3 16 7 35 8 19 1 35 -2 35 -6 0 -12 -79 -85 -85 -79 -3 3 1 13 10 21
9 10 11 18 5 22 -5 3 -10 2 -10 -4 0 -6 -6 -8 -14 -5 -20 8 -28 -12 -11 -26 8
-7 15 -18 15 -25 0 -7 7 -18 15 -25 25 -21 17 -29 -36 -36 -33 -4 -55 -13 -62
-25 -7 -11 -20 -19 -31 -19 -16 0 -17 2 -5 16 12 15 11 16 -11 9 -14 -5 -32
-8 -40 -7 -8 0 -22 -2 -30 -5 -31 -11 -87 -14 -155 -8 -93 8 -102 14 -82 51 8
16 23 54 32 85 l16 56 65 18 c61 16 83 29 70 42 -3 3 -30 -1 -61 -10 -52 -15
-55 -15 -55 3 0 37 30 90 55 96 14 3 25 9 25 13 0 3 19 7 42 7 36 1 46 -3 76
-37z m-2573 0 c84 -15 110 -32 159 -99 56 -76 82 -129 102 -212 16 -63 15 -71
-10 -244 -42 -285 -86 -754 -86 -919 0 -152 18 -311 45 -401 19 -60 25 -103
25 -172 l0 -91 -43 -53 c-65 -81 -107 -98 -407 -158 -85 -17 -159 -36 -164
-40 -10 -10 38 -85 60 -94 8 -3 14 -14 14 -24 0 -10 15 -36 33 -57 l33 -38 31
17 c18 9 37 16 43 16 16 0 12 -30 -10 -60 l-21 -29 21 -11 c18 -10 20 -8 20
17 1 24 2 26 11 10 6 -9 8 -25 5 -35 -4 -12 9 -32 42 -63 76 -73 114 -101 124
-91 5 5 12 42 15 83 6 79 20 112 35 85 5 -9 5 -24 -2 -35 -14 -26 -13 -31 5
-25 9 4 18 -1 22 -12 3 -11 14 -29 23 -41 17 -22 18 -22 34 -4 10 11 16 35 16
67 -1 39 -3 45 -11 31 -6 -10 -8 -28 -5 -40 3 -12 1 -28 -3 -35 -6 -10 -14 -5
-30 21 -26 42 -26 53 -2 108 l19 42 -24 36 c-25 37 -32 71 -14 71 5 0 17 -15
26 -32 9 -18 18 -35 21 -38 7 -8 23 24 23 48 0 13 4 20 10 17 15 -9 12 11 -4
24 -8 7 -12 21 -9 31 5 21 23 28 23 10 0 -22 19 -8 29 21 7 21 16 30 28 27 15
-3 18 -15 19 -81 2 -76 -5 -93 -25 -60 -6 10 -10 14 -10 8 0 -5 6 -19 14 -29
10 -14 15 -45 15 -98 0 -65 -3 -78 -16 -78 -12 0 -15 -5 -9 -22 4 -13 10 -47
12 -75 5 -50 4 -53 -19 -53 -13 0 -30 -6 -37 -12 -9 -9 -12 -9 -7 -1 7 14 -13
63 -27 63 -5 0 -11 -9 -14 -21 -5 -17 -12 -20 -46 -17 -24 2 -42 -2 -44 -9 -5
-15 136 -98 242 -142 l50 -20 -40 -1 c-183 -5 -289 12 -436 69 -110 43 -208
105 -304 191 -36 33 -72 60 -80 60 -8 0 -15 5 -15 10 0 6 4 10 10 10 5 0 -14
30 -41 67 -28 36 -55 77 -60 90 -5 13 -12 23 -16 23 -9 0 -47 -88 -48 -109 0
-8 -6 -16 -14 -19 -8 -3 -11 0 -7 6 4 7 2 21 -4 32 -8 15 -8 18 3 15 8 -4 21
12 35 40 34 71 31 78 -30 70 -48 -7 -51 -6 -39 9 7 9 10 16 6 16 -5 0 0 9 10
20 10 11 16 22 13 25 -7 7 -33 -32 -42 -62 -7 -20 -14 -23 -65 -23 l-58 0 -38
-70 c-21 -38 -42 -70 -47 -70 -16 0 -8 28 22 71 41 60 39 69 -15 69 -25 0 -45
3 -45 6 0 4 20 35 45 70 45 63 60 99 30 74 -8 -7 -12 -16 -9 -21 3 -5 1 -9 -4
-9 -6 0 -26 -25 -46 -55 -20 -30 -41 -57 -47 -60 -14 -9 -89 5 -89 16 0 6 19
36 42 67 94 126 186 262 178 262 -5 0 -32 -33 -61 -72 -29 -40 -60 -80 -69
-88 -9 -8 -43 -50 -75 -94 -59 -78 -59 -78 -98 -73 -59 8 -65 20 -31 60 16 19
36 43 44 53 8 11 34 42 58 71 23 28 42 54 42 57 0 15 -17 4 -32 -21 -9 -16
-27 -39 -40 -53 -13 -14 -36 -43 -53 -65 -16 -22 -37 -46 -47 -53 -10 -7 -18
-22 -18 -32 0 -10 -4 -21 -9 -24 -5 -4 -7 2 -4 12 3 14 -7 22 -46 36 -35 12
-56 27 -68 49 l-18 31 95 100 c110 116 324 339 358 372 l22 22 -72 67 c-114
106 -254 216 -378 298 -93 61 -118 73 -130 64 -11 -8 -10 -6 2 8 35 42 45 343
24 741 l-6 111 98 67 c66 45 122 75 173 91 41 13 139 48 219 78 141 53 200 71
200 64 0 -17 -74 -197 -88 -217 -30 -40 -101 -90 -129 -90 -36 0 -23 -24 15
-28 43 -4 135 49 171 99 16 21 45 78 66 126 45 107 82 158 138 196 57 38 254
133 308 148 102 28 241 35 334 18z m2800 -319 c4 -6 -18 -10 -67 -9 -78 0 -71
12 11 17 27 2 52 -2 56 -8z m-680 -65 c33 -4 63 -12 67 -19 8 -12 11 -96 4
-96 -22 0 -154 72 -196 107 -9 8 25 22 45 18 11 -2 47 -7 80 -10z m472 -30
c133 0 241 -1 240 -1 -1 -1 -58 -7 -127 -13 -139 -13 -174 -17 -305 -31 -159
-17 -164 -16 -145 34 9 25 12 26 52 19 24 -5 152 -8 285 -8z m-4137 -74 c0 -5
-24 -11 -54 -13 -43 -2 -52 0 -44 10 12 14 98 17 98 3z m-101 -36 c36 -3 66
-7 68 -9 5 -5 -48 -43 -78 -56 -13 -6 -38 -19 -56 -30 -17 -10 -51 -21 -75
-24 -108 -13 -359 -28 -372 -23 -8 3 -20 24 -26 47 -6 23 -13 47 -16 54 -4 10
25 15 123 20 70 4 173 13 228 20 55 7 109 12 120 10 11 -2 49 -6 84 -9z m111
-84 c-7 -14 -21 -21 -38 -21 l-27 1 35 29 c36 30 49 26 30 -9z m-42 -44 c19 5
22 1 22 -23 -1 -46 -28 -71 -88 -82 l-53 -9 6 31 c12 60 17 67 46 73 18 3 26
10 22 17 -4 7 -2 7 8 -1 8 -7 25 -10 37 -6z m-334 -136 c-158 -155 -224 -215
-229 -209 -3 3 15 25 40 50 43 42 46 46 34 71 -7 15 -10 29 -8 31 2 2 23 6 46
9 23 2 50 12 60 22 17 18 17 18 -7 12 -14 -3 -43 -9 -65 -13 -22 -4 -43 -11
-46 -16 -3 -4 -18 19 -34 52 -16 33 -27 62 -24 64 2 3 74 12 159 21 85 9 159
21 165 26 6 6 11 6 14 -2 2 -6 -46 -59 -105 -118z m4153 62 c-9 -9 -20 -13
-24 -9 -4 4 -1 11 7 16 25 16 35 11 17 -7z m-3837 -59 c0 -9 -9 -36 -19 -62
-10 -26 -25 -69 -33 -97 -16 -52 -16 -52 -105 -75 -26 -6 -43 -17 -43 -25 0
-19 7 -19 60 0 23 8 46 13 51 10 14 -9 -20 -89 -48 -112 -25 -20 -25 -22 -5
-16 25 6 27 0 11 -48 -16 -46 -16 -46 -44 -19 -28 27 -32 45 -10 54 8 3 15 10
15 15 0 6 -6 8 -14 5 -9 -3 -17 9 -26 41 -13 45 -13 45 -49 39 -20 -4 -51 -13
-70 -20 -18 -8 -57 -20 -87 -28 -46 -12 -53 -12 -58 1 -11 27 -7 29 71 43 141
25 155 31 185 86 33 59 34 64 8 64 -20 0 -29 19 -10 21 6 1 15 3 20 4 6 1 14
3 18 4 4 0 16 24 27 52 23 59 26 61 80 69 69 10 75 9 75 -6z m-206 -41 c-9
-21 -30 -72 -46 -113 -45 -115 -86 -138 -129 -75 -20 30 -28 34 -49 29 -14 -3
-30 -7 -37 -8 -7 -1 -15 -5 -19 -9 -4 -3 -11 -4 -15 -1 -16 10 32 49 61 50 16
1 28 -1 26 -5 -2 -3 9 -6 26 -7 16 -1 24 2 18 6 -9 6 -9 9 1 13 8 4 1 3 -16 0
-27 -6 -29 -5 -16 10 23 29 159 127 175 127 8 0 18 5 21 10 15 24 14 7 -1 -27z
m4126 -133 c118 -27 170 -44 170 -56 0 -17 -1 -17 -35 -4 -14 5 -36 12 -48 14
-63 11 -187 50 -187 59 0 6 13 7 33 2 17 -4 48 -11 67 -15z m-4249 -394 c52
-51 110 -111 129 -132 l35 -38 -40 33 c-66 55 -236 231 -223 231 3 0 48 -42
99 -94z m739 -328 c0 -7 -21 -28 -46 -47 -24 -19 -42 -37 -38 -40 3 -3 22 -11
42 -16 33 -10 38 -8 67 22 30 31 55 42 55 26 0 -5 -14 -20 -32 -35 -25 -20
-29 -28 -18 -32 8 -3 27 -10 42 -15 l27 -10 -87 -83 c-48 -46 -88 -86 -90 -90
-10 -22 18 0 94 74 47 46 91 86 98 90 16 9 78 -10 74 -22 -2 -5 -100 -108
-218 -231 l-215 -222 -17 39 c-10 21 -18 44 -18 49 0 12 169 185 181 185 5 0
9 5 9 11 0 18 -15 7 -105 -79 -61 -58 -90 -81 -98 -73 -11 11 -36 112 -44 176
-5 39 -3 42 51 85 35 28 52 48 46 54 -6 6 -27 -5 -57 -28 -48 -37 -48 -37 -54
-14 -13 44 -9 72 13 95 12 13 16 23 10 23 -6 0 -14 -6 -19 -12 -9 -15 -20 54
-14 90 4 26 24 28 75 7 l37 -16 -30 -28 c-17 -16 -31 -32 -31 -35 0 -7 45 19
72 42 14 11 23 11 62 -2 l46 -16 58 45 c60 47 72 53 72 33z m3560 -48 c14 -11
21 -20 15 -20 -5 0 -21 9 -35 20 -14 11 -20 20 -15 20 6 0 21 -9 35 -20z
m-742 -282 c27 -35 115 -142 195 -238 81 -96 147 -178 147 -181 0 -4 -21 -12
-47 -19 -44 -13 -47 -13 -65 11 -10 13 -29 35 -41 49 -12 14 -28 38 -36 52
-16 32 -61 76 -61 61 0 -5 11 -22 24 -36 13 -14 22 -27 20 -30 -2 -2 11 -20
30 -40 19 -20 31 -37 28 -37 -3 0 3 -9 12 -19 20 -22 14 -28 -42 -37 -29 -5
-47 -2 -59 7 -9 8 -14 9 -10 3 8 -13 -22 -24 -69 -24 -28 0 -37 8 -75 65 -39
60 -59 78 -59 56 0 -4 8 -19 18 -32 23 -33 42 -67 42 -78 0 -5 -15 -8 -32 -6
-18 1 -41 -2 -51 -7 -9 -5 -17 -5 -16 -1 3 13 -12 43 -22 43 -5 0 -8 -6 -6
-12 1 -9 -11 -12 -43 -10 -58 5 -66 13 -50 54 23 58 31 62 53 26 24 -40 35
-22 13 21 -20 38 -20 54 -1 91 13 25 13 34 3 52 -7 13 -15 25 -19 28 -3 3 -15
21 -27 41 -18 29 -19 38 -9 42 9 3 25 -13 43 -44 16 -27 33 -47 38 -46 6 2 14
16 19 33 13 40 14 40 36 13 11 -13 20 -20 21 -16 0 4 -22 31 -50 59 -27 28
-50 58 -50 67 1 10 12 3 34 -22 l33 -37 13 30 c7 17 16 33 20 35 4 3 45 -45
90 -106 45 -60 85 -108 88 -105 4 5 -60 96 -100 140 -10 11 -29 36 -44 57 -24
34 -25 41 -14 73 6 20 15 36 20 36 4 0 30 -28 58 -62z m-1298 -188 c0 -5 -2
-10 -4 -10 -3 0 -8 5 -11 10 -3 6 -1 10 4 10 6 0 11 -4 11 -10z m224 -118
c-25 -2 -48 -2 -49 0 -2 2 -1 23 2 46 l6 43 44 -43 44 -43 -47 -3z m-202 18
c2 -10 -9 -14 -39 -15 -51 -3 -54 7 -10 32 32 20 41 17 49 -17z m1793 -10 c3
-5 1 -10 -4 -10 -6 0 -11 5 -11 10 0 6 2 10 4 10 3 0 8 -4 11 -10z m-1790 -44
c0 -13 -3 -22 -7 -20 -4 3 -12 -5 -19 -18 -11 -21 -12 -21 -25 -3 -20 27 -17
44 9 55 35 14 42 12 42 -14z m-155 -7 c0 -5 -4 -9 -8 -9 -5 0 -9 7 -9 15 0 8
4 12 9 9 4 -3 8 -9 8 -15z m-90 -10 c0 -6 -4 -7 -10 -4 -5 3 -10 11 -10 16 0
6 5 7 10 4 6 -3 10 -11 10 -16z m1075 -48 c17 -22 15 -21 -17 5 -21 16 -38 35
-38 42 0 13 18 -2 55 -47z m-1176 12 c-5 -21 -11 -63 -14 -93 -11 -94 -20
-133 -33 -138 -15 -5 -16 40 -1 88 5 19 14 64 20 99 10 67 15 81 29 81 4 0 4
-17 -1 -37z m191 17 c0 -5 -4 -10 -10 -10 -5 0 -10 5 -10 10 0 6 5 10 10 10 6
0 10 -4 10 -10z m165 -99 c4 -11 9 -10 25 4 25 23 26 15 1 -13 -10 -12 -21
-18 -26 -14 -4 4 7 -14 24 -39 27 -42 31 -57 37 -146 9 -138 6 -148 -48 -148
-24 1 -45 3 -47 5 -7 9 12 55 36 87 14 18 22 37 18 43 -9 14 -32 -4 -41 -32
-3 -11 -13 -28 -22 -39 -26 -31 -41 3 -42 95 0 65 3 77 15 73 8 -4 17 -1 21 6
4 7 3 9 -1 4 -16 -14 -31 48 -27 111 3 46 7 62 17 59 7 -3 19 6 26 20 l14 26
7 -44 c4 -24 10 -50 13 -58z m169 58 c-12 -13 -20 -16 -22 -9 -3 7 2 16 9 21
25 16 32 9 13 -12z m7 -42 c-8 -8 -11 -7 -11 4 0 20 13 34 18 19 3 -7 -1 -17
-7 -23z m97 -34 c7 -27 14 -79 17 -116 3 -38 7 -72 10 -77 2 -4 7 -35 10 -70
3 -34 9 -81 15 -104 5 -22 11 -56 14 -74 5 -31 5 -32 -14 -19 -25 17 -64 67
-53 67 5 0 14 -5 20 -11 9 -9 11 0 8 32 -7 76 -24 201 -40 289 -8 47 -15 95
-15 108 0 38 16 24 28 -25z m77 -4 c15 -23 -38 -3 -53 20 l-16 24 31 -17 c18
-9 35 -21 38 -27z m-195 13 c0 -20 -46 -92 -60 -92 -8 0 8 49 31 93 12 22 29
22 29 -1z m-1290 -23 c0 -6 -4 -7 -10 -4 -5 3 -10 11 -10 16 0 6 5 7 10 4 6
-3 10 -11 10 -16z m1553 -14 c20 -8 42 -24 50 -36 9 -13 16 -16 19 -8 3 9 12
9 41 -2 20 -7 37 -16 37 -20 0 -9 -45 -59 -53 -59 -3 0 -8 14 -12 30 -4 17
-10 28 -15 25 -5 -3 -4 -21 2 -41 7 -26 6 -40 -2 -48 -11 -11 -15 -8 -72 62
-10 12 -15 28 -12 36 3 8 -2 28 -11 45 -18 36 -18 36 28 16z m-11 -149 c11
-41 14 -44 32 -34 21 11 21 11 2 -10 -17 -19 -17 -27 -7 -89 7 -37 14 -76 17
-85 4 -13 0 -18 -14 -18 -17 0 -21 9 -27 63 -3 34 -11 76 -16 93 -14 47 -20
124 -9 124 6 0 15 -20 22 -44z m-287 -49 c-21 -51 -35 -38 -35 31 l0 57 25
-26 c25 -24 25 -26 10 -62z m1455 18 c-7 -9 -15 -13 -17 -11 -7 7 7 26 19 26
6 0 6 -6 -2 -15z m-3326 -11 c4 -10 1 -14 -6 -12 -15 5 -23 28 -10 28 5 0 13
-7 16 -16z m1928 -46 c2 -15 12 -36 22 -47 17 -19 10 -31 -8 -14 -4 4 -27 6
-51 4 -25 -1 -45 1 -45 4 0 4 12 29 27 56 30 52 48 51 55 -3z m1023 -10 c-2
-35 -10 -169 -16 -298 -6 -129 -13 -242 -15 -250 -1 -8 -3 -20 -3 -27 -1 -8
-16 -4 -47 10 l-45 22 3 53 c3 55 -14 69 -20 16 -5 -44 -15 -47 -57 -19 -30
21 -40 24 -46 13 -11 -16 -11 -20 0 -37 6 -9 11 -10 15 -2 4 6 12 11 18 11 11
0 -46 -70 -68 -83 -10 -6 -12 2 -8 35 3 24 9 58 14 77 5 19 8 35 7 36 -1 1
-18 14 -38 28 -20 15 -38 27 -42 27 -3 0 -11 -31 -17 -70 -12 -71 -23 -91 -42
-72 -7 7 -4 37 9 93 l19 82 -38 35 c-38 35 -39 36 -34 91 6 55 6 55 -7 22 -7
-19 -18 -36 -24 -38 -11 -4 -53 42 -53 58 0 10 67 32 82 27 7 -3 19 3 28 13 8
10 32 25 53 33 l39 16 -7 -65 c-10 -90 10 -85 26 6 12 66 15 73 51 95 20 13
44 24 52 24 8 0 18 5 22 11 7 12 74 44 86 41 4 -1 24 9 44 23 58 39 65 35 59
-37z m-1265 -69 c0 -5 -4 -9 -10 -9 -5 0 -10 7 -10 16 0 8 5 12 10 9 6 -3 10
-10 10 -16z m-780 -124 c17 -9 30 -19 30 -23 0 -5 -13 -21 -30 -37 l-29 -28
-12 29 c-30 71 -17 89 41 59z"/>
<path d="M5061 5985 c1 -17 8 -82 15 -145 8 -63 14 -136 14 -164 0 -27 3 -46
7 -42 13 13 -13 355 -28 371 -6 5 -9 -2 -8 -20z"/>
<path d="M4950 5951 c0 -6 5 -13 10 -16 6 -3 10 1 10 9 0 9 -4 16 -10 16 -5 0
-10 -4 -10 -9z"/>
<path d="M4960 5890 c0 -5 5 -10 10 -10 6 0 10 5 10 10 0 6 -4 10 -10 10 -5 0
-10 -4 -10 -10z"/>
<path d="M4010 5483 c0 -5 11 -21 25 -38 l25 -30 -21 38 c-20 36 -29 45 -29
30z"/>
<path d="M4090 5360 c6 -11 16 -20 23 -19 9 0 9 2 0 6 -7 2 -13 11 -13 19 0 8
-5 14 -10 14 -7 0 -7 -6 0 -20z"/>
<path d="M6895 5059 c-84 -74 -84 -74 -63 -63 9 5 31 23 50 39 18 17 48 42 66
58 19 15 30 27 25 27 -5 0 -40 -28 -78 -61z"/>
<path d="M4015 2315 c-22 -27 -64 -76 -93 -109 -64 -73 -78 -96 -60 -96 17 0
201 227 196 242 -2 6 -22 -11 -43 -37z"/>
<path d="M4067 2225 c-15 -19 -23 -35 -18 -35 11 0 55 59 49 65 -2 2 -16 -11
-31 -30z"/>
<path d="M4142 1996 c-34 -58 -37 -66 -23 -66 10 0 71 94 71 110 0 23 -17 7
-48 -44z"/>
<path d="M5107 1731 c-4 -17 -3 -21 5 -13 5 5 8 16 6 23 -3 8 -7 3 -11 -10z"/>
<path d="M3065 3380 c-3 -5 -1 -10 4 -10 6 0 11 5 11 10 0 6 -2 10 -4 10 -3 0
-8 -4 -11 -10z"/>
<path d="M3695 2470 c-10 -11 -16 -20 -13 -20 3 0 15 9 28 20 13 11 19 20 13
20 -5 0 -18 -9 -28 -20z"/>
<path d="M3634 2416 c-10 -8 -17 -16 -14 -19 3 -2 14 4 24 14 23 22 18 25 -10
5z"/>
<path d="M3590 2379 c0 -5 5 -7 10 -4 6 3 10 8 10 11 0 2 -4 4 -10 4 -5 0 -10
-5 -10 -11z"/>
<path d="M6480 2101 c5 -11 15 -23 21 -27 6 -3 3 5 -6 20 -20 30 -30 35 -15 7z"/>
<path d="M6520 2054 c0 -6 7 -19 16 -30 14 -18 14 -18 3 6 -14 31 -19 36 -19
24z"/>
<path d="M6400 1495 c0 -17 -7 -102 -15 -190 -17 -191 -18 -198 -6 -191 5 4
12 50 16 104 3 53 11 139 16 191 8 66 7 97 0 104 -8 8 -11 3 -11 -18z"/>
<path d="M6261 1204 c0 -11 3 -14 6 -6 3 7 2 16 -1 19 -3 4 -6 -2 -5 -13z"/>
<path d="M6261 1134 c0 -11 3 -14 6 -6 3 7 2 16 -1 19 -3 4 -6 -2 -5 -13z"/>
<path d="M5797 6388 c-31 -42 -131 -218 -126 -222 2 -2 14 -7 26 -10 17 -5 23
-2 28 16 4 13 30 72 57 132 26 60 47 111 44 113 -2 2 -15 -11 -29 -29z"/>
<path d="M6031 6379 c-102 -12 -135 -37 -151 -114 -4 -22 -22 -42 -67 -75 -34
-25 -62 -48 -63 -52 0 -4 9 -10 20 -13 14 -5 35 4 68 28 40 30 57 35 114 39
58 3 72 8 99 33 50 47 111 135 105 151 -6 15 -15 16 -125 3z"/>
<path d="M5671 5934 c-13 -47 -14 -117 -2 -110 14 9 34 127 23 138 -7 7 -14
-3 -21 -28z"/>
<path d="M6402 5508 c-32 -55 -33 -85 -3 -46 19 24 51 83 51 93 0 19 -23 -3
-48 -47z"/>
<path d="M3500 5018 c1 -14 82 -78 100 -78 20 0 8 16 -38 50 -57 43 -62 45
-62 28z"/>
<path d="M3415 4940 c4 -6 11 -8 16 -5 14 9 11 15 -7 15 -8 0 -12 -5 -9 -10z"/>
<path d="M2999 4239 c-20 -12 -2 -24 59 -37 67 -15 85 -15 80 0 -6 16 -122 48
-139 37z"/>
<path d="M2836 3984 c-5 -13 -1 -16 23 -12 17 2 28 1 25 -4 -3 -4 10 -8 28 -8
18 0 50 -4 71 -9 20 -5 37 -5 37 -1 0 17 -28 28 -88 34 -35 4 -69 9 -76 12 -8
3 -16 -2 -20 -12z"/>
<path d="M3040 3955 c7 -8 24 -15 39 -15 l26 1 -25 14 c-35 20 -57 20 -40 0z"/>
<path d="M3130 3940 c8 -5 22 -9 30 -9 10 0 8 3 -5 9 -27 12 -43 12 -25 0z"/>
<path d="M3238 3933 c7 -3 16 -2 19 1 4 3 -2 6 -13 5 -11 0 -14 -3 -6 -6z"/>
<path d="M7281 3570 c-9 -5 -4 -7 13 -7 29 0 32 2 13 10 -8 3 -20 2 -26 -3z"/>
<path d="M7490 3550 c-18 -11 -13 -16 29 -25 23 -5 31 -4 27 4 -12 19 -41 30
-56 21z"/>
<path d="M7568 3533 c22 -21 132 -40 152 -28 14 9 12 26 -2 24 -15 -3 -124 10
-153 18 -18 5 -18 4 3 -14z"/>
<path d="M7105 2566 c16 -13 34 -22 39 -18 5 3 0 9 -11 13 -12 4 -24 12 -28
18 -3 6 -12 11 -18 11 -7 0 1 -11 18 -24z"/>
<path d="M6951 2546 c39 -37 95 -76 107 -76 24 1 -68 79 -92 80 -11 0 -17 -2
-15 -4z"/>
<path d="M6819 2396 c47 -47 88 -83 93 -80 4 3 -9 19 -28 37 -20 18 -58 53
-84 80 -27 26 -52 47 -57 47 -4 0 30 -38 76 -84z"/>
<path d="M6630 2453 c1 -17 207 -226 213 -216 4 6 -40 58 -96 117 -97 99 -117
117 -117 99z"/>
<path d="M2279 2191 c-2 -28 -2 -51 1 -51 10 1 50 39 50 47 0 5 -11 20 -24 32
l-24 23 -3 -51z"/>
<path d="M8046 2199 c-33 -26 -32 -38 3 -66 l28 -22 -1 54 c0 30 -2 55 -2 55
-1 0 -13 -9 -28 -21z"/>
<path d="M2345 2160 c3 -5 8 -10 11 -10 2 0 4 5 4 10 0 6 -5 10 -11 10 -5 0
-7 -4 -4 -10z"/>
<path d="M2341 1984 c-34 -41 -61 -82 -59 -91 2 -10 24 9 64 58 71 87 77 96
66 103 -5 3 -36 -29 -71 -70z"/>
<path d="M7940 2034 c0 -11 122 -164 131 -164 19 0 7 21 -52 94 -53 67 -79 90
-79 70z"/>
<path d="M2427 1910 c-10 -16 -23 -35 -30 -42 -32 -33 -117 -153 -117 -165 0
-12 2 -12 15 1 8 8 15 19 15 24 0 6 3 12 8 14 4 2 21 23 37 48 17 25 35 50 41
55 15 14 64 83 64 89 0 16 -18 3 -33 -24z"/>
<path d="M7900 1932 c0 -9 87 -134 167 -241 2 -2 5 -2 7 0 6 6 -12 41 -42 80
-97 128 -132 171 -132 161z"/>
<path d="M2516 1654 c-39 -63 -43 -74 -23 -74 17 0 80 111 69 122 -6 6 -24
-13 -46 -48z"/>
<path d="M7800 1699 c0 -18 60 -119 71 -119 16 0 10 21 -23 76 -31 52 -48 67
-48 43z"/>
<path d="M7970 1637 c0 -8 7 -20 15 -27 8 -7 15 -16 15 -20 0 -4 16 -31 35
-60 26 -39 35 -47 35 -31 0 23 -47 101 -61 101 -5 0 -9 6 -9 14 0 7 -7 19 -15
26 -12 10 -15 10 -15 -3z"/>
<path d="M2362 1628 c-6 -6 -8 -17 -5 -24 3 -8 -1 -14 -10 -14 -20 0 -69 -77
-65 -103 2 -18 9 -12 38 33 19 30 42 67 52 82 17 27 10 46 -10 26z"/>
<path d="M7754 1565 c3 -21 16 -31 16 -12 0 9 -4 18 -9 21 -5 4 -8 -1 -7 -9z"/>
<path d="M2566 1496 c-14 -26 -26 -36 -45 -37 -14 -1 -33 -2 -41 -3 -8 -2 -24
-3 -36 -4 -14 -1 -33 -23 -58 -67 -39 -66 -62 -92 -72 -82 -7 7 21 62 52 103
13 17 24 33 24 37 0 8 -110 13 -110 5 -1 -5 -1 -47 -1 -95 l-1 -87 39 -13 c83
-29 225 -45 358 -40 175 7 174 6 119 73 -24 30 -44 59 -44 64 0 5 -6 15 -12
22 -7 8 -18 22 -24 33 -18 33 -30 27 -52 -28 -25 -60 -27 -71 -9 -61 6 4 3 -2
-7 -14 -21 -24 -36 -28 -36 -11 0 5 5 7 10 4 6 -3 10 -2 10 4 0 5 -4 13 -10
16 -15 9 -12 25 5 25 8 0 14 3 13 8 -1 4 8 29 20 55 33 72 30 79 -22 72 -47
-7 -78 1 -56 15 7 4 10 15 8 24 -2 12 -8 7 -22 -18z m-22 -82 c4 -10 1 -14 -6
-12 -15 5 -23 28 -10 28 5 0 13 -7 16 -16z"/>
<path d="M7770 1522 c0 -6 5 -14 10 -17 24 -15 6 -24 -40 -18 -40 5 -50 3 -50
-9 0 -23 49 -118 61 -118 8 0 7 -6 -2 -17 -11 -13 -11 -17 -1 -20 6 -3 12 -9
12 -14 0 -5 -9 -4 -20 3 -11 7 -19 20 -18 28 3 17 -34 110 -44 110 -3 0 -17
-19 -31 -42 -14 -24 -44 -68 -67 -98 l-41 -55 33 -7 c18 -4 92 -8 164 -8 123
-1 176 6 307 41 l37 10 0 89 0 90 -55 0 c-30 0 -55 -4 -55 -10 0 -5 16 -34 35
-64 19 -30 35 -60 35 -66 0 -24 -18 -5 -62 65 -40 64 -52 75 -75 75 -45 0
-103 12 -98 20 2 4 -4 15 -15 25 -11 10 -20 13 -20 7z m68 -84 c-2 -6 -10 -14
-16 -16 -7 -2 -10 2 -6 12 7 18 28 22 22 4z"/>
<path d="M4020 1473 c0 -79 35 -393 44 -396 8 -3 6 47 -6 157 -9 88 -17 185
-17 214 -1 28 -5 52 -11 52 -5 0 -10 -12 -10 -27z"/>
<path d="M6777 1485 c-4 -8 -2 -17 3 -20 6 -4 10 3 10 14 0 25 -6 27 -13 6z"/>
<path d="M3632 1460 c0 -14 2 -19 5 -12 2 6 2 18 0 25 -3 6 -5 1 -5 -13z"/>
<path d="M6782 1406 c0 -20 4 -34 8 -31 5 3 7 16 5 30 -4 40 -13 40 -13 1z"/>
<path d="M3622 1400 c0 -19 2 -27 5 -17 2 9 2 25 0 35 -3 9 -5 1 -5 -18z"/>
<path d="M3612 1295 c0 -16 2 -22 5 -12 2 9 2 23 0 30 -3 6 -5 -1 -5 -18z"/>
<path d="M7017 1293 c-2 -5 2 -35 9 -68 7 -33 13 -67 13 -74 1 -12 4 -12 13
-3 9 9 8 28 -1 82 -12 63 -22 83 -34 63z"/>
<path d="M3355 1228 c-11 -72 -11 -111 1 -115 7 -2 15 24 22 66 15 88 15 91
-2 91 -10 0 -17 -15 -21 -42z"/>
<path d="M6797 1263 c-9 -15 3 -123 14 -123 10 0 10 26 1 90 -4 26 -10 40 -15
33z"/>
<path d="M3607 1223 c-4 -3 -7 -31 -7 -62 0 -68 16 -57 22 17 5 49 0 61 -15
45z"/>
<path d="M4181 1174 c0 -11 3 -14 6 -6 3 7 2 16 -1 19 -3 4 -6 -2 -5 -13z"/>
<path d="M6803 1100 c4 -14 7 -44 7 -67 0 -24 5 -43 10 -43 18 0 12 106 -7
121 -15 13 -16 11 -10 -11z"/>
<path d="M3602 1078 c-14 -14 -16 -128 -3 -128 7 0 22 129 16 137 -1 2 -7 -3
-13 -9z"/>
<path d="M4174 1020 c-33 -13 -37 -27 -12 -44 31 -22 35 -21 34 19 -1 19 -1
35 -1 34 0 0 -10 -4 -21 -9z"/>
</g>
</svg>
